<?xml version="1.0" standalone="no"?>
<!DOCTYPE svg PUBLIC "-//W3C//DTD SVG 20010904//EN"
 "http://www.w3.org/TR/2001/REC-SVG-20010904/DTD/svg10.dtd">
<svg version="1.0" xmlns="http://www.w3.org/2000/svg"
 width="1024.000000pt" height="1024.000000pt" viewBox="0 0 1024.000000 1024.000000"
 preserveAspectRatio="xMidYMid meet">
<metadata>
Created by potrace 1.11, written by Peter Selinger 2001-2013
</metadata>
<g transform="translate(0.000000,1024.000000) scale(0.100000,-0.100000)"
fill="#000000" stroke="none">
<path d="M1048 9791 c-68 -14 -91 -50 -103 -166 -4 -33 -25 -172 -46 -310 -22
-137 -51 -324 -64 -415 -13 -91 -32 -203 -41 -250 -10 -55 -18 -162 -21 -305
-4 -208 -3 -222 16 -252 26 -41 69 -53 199 -53 l102 0 0 -27 c0 -31 -31 -247
-60 -418 -10 -60 -21 -135 -25 -165 -3 -30 -19 -134 -35 -230 -16 -96 -41
-258 -55 -360 -14 -102 -34 -234 -45 -295 -10 -60 -26 -161 -34 -222 -9 -62
-23 -154 -31 -205 -9 -51 -22 -136 -30 -188 -34 -240 -59 -386 -67 -397 -6 -7
-63 -12 -171 -15 -181 -3 -197 -8 -221 -69 -8 -20 -29 -130 -46 -245 -17 -115
-38 -249 -45 -299 -8 -49 -25 -164 -39 -255 -39 -259 -55 -361 -66 -419 -5
-29 -10 -123 -10 -208 0 -170 9 -209 56 -240 27 -17 91 -18 1494 -18 1203 0
1471 2 1497 13 42 18 59 58 78 183 23 158 30 208 85 559 66 428 76 490 83 496
14 14 18 8 247 -401 99 -178 167 -298 195 -345 18 -30 79 -138 135 -240 57
-102 113 -199 126 -216 36 -49 81 -55 381 -53 145 1 266 -1 270 -5 8 -8 -9
-154 -47 -391 -16 -99 -38 -243 -50 -320 -85 -573 -112 -740 -122 -752 -8 -9
-52 -13 -158 -13 -82 0 -161 -5 -179 -11 -54 -19 -62 -44 -111 -374 -16 -110
-44 -285 -60 -390 -62 -388 -83 -554 -87 -690 -6 -175 5 -235 50 -267 l32 -23
1650 0 c1556 0 1652 1 1682 18 42 23 51 40 63 129 5 40 21 147 36 238 53 343
83 538 98 640 9 58 23 149 31 202 9 60 15 167 15 274 0 196 -7 224 -63 244
-18 6 -146 10 -317 10 -240 0 -290 2 -300 15 -9 11 -9 28 2 77 l13 63 835 5
c898 5 870 4 905 57 10 14 28 106 45 231 17 114 37 243 44 287 8 44 22 134 31
200 9 66 27 183 40 260 13 77 27 165 30 195 4 30 25 165 46 300 37 226 40 259
38 421 -1 97 1 181 5 187 5 9 122 12 444 12 478 0 465 -1 496 58 15 30 56 275
151 917 14 94 30 193 35 220 49 261 73 588 48 679 -9 33 -23 56 -41 70 l-28
21 -1632 5 -1632 5 2 25 c3 34 30 225 48 340 9 52 27 172 40 265 14 94 31 211
39 260 8 50 26 164 40 255 14 91 30 199 37 240 6 41 16 81 21 88 8 9 53 12
164 12 162 0 193 7 218 46 9 12 29 109 46 216 65 414 90 577 106 688 9 63 27
181 40 261 26 157 33 382 14 450 -6 19 -22 46 -36 60 l-26 24 -1469 3 c-1605
3 -1521 5 -1552 -55 -8 -15 -25 -91 -36 -168 -12 -77 -35 -225 -51 -330 -33
-206 -72 -466 -99 -640 -24 -163 -12 -174 -219 195 -64 113 -133 237 -155 275
-22 39 -70 124 -107 190 -203 363 -279 491 -304 509 -27 21 -32 21 -1249 22
-672 1 -1239 -1 -1259 -5z m6445 -103 c15 -8 17 -26 17 -151 0 -113 -7 -191
-35 -372 -72 -469 -136 -891 -142 -935 -11 -84 0 -80 -213 -80 -104 0 -191 -4
-194 -9 -3 -4 -21 -116 -40 -247 -20 -131 -54 -356 -76 -499 -22 -143 -56
-366 -75 -495 -19 -129 -42 -280 -51 -334 -8 -55 -11 -103 -7 -107 5 -5 760
-10 1678 -11 l1670 -3 0 -180 c-1 -140 -6 -208 -23 -305 -12 -69 -35 -213 -51
-320 -100 -674 -141 -923 -153 -937 -8 -11 -189 -13 -887 -11 l-876 3 -5 95
c-3 52 -9 101 -13 108 -6 9 -99 12 -407 12 l-399 0 -10 -37 c-18 -74 -53 -313
-47 -328 5 -13 107 -15 843 -17 l838 -3 0 -185 c0 -191 -9 -264 -80 -690 -13
-80 -29 -183 -35 -230 -6 -47 -24 -168 -40 -270 -16 -102 -43 -275 -60 -385
-17 -110 -34 -203 -38 -207 -4 -4 -397 -9 -872 -10 l-865 -3 -22 -130 c-12
-71 -23 -152 -25 -180 l-3 -50 339 -3 c230 -1 344 -6 353 -13 10 -9 13 -45 13
-140 0 -127 -4 -158 -85 -694 -14 -93 -39 -260 -56 -370 -16 -110 -36 -229
-42 -265 l-12 -65 -1625 0 -1625 0 0 180 c1 157 6 210 38 415 20 129 53 339
72 465 66 423 73 467 80 473 4 4 93 9 198 12 l192 5 22 150 c12 83 36 236 52
340 61 391 82 525 111 720 16 110 38 255 49 323 11 67 18 129 15 137 -5 13
-55 15 -343 15 -185 0 -341 4 -348 8 -10 6 -33 44 -115 192 -14 25 -67 119
-119 210 -51 91 -112 199 -134 240 -23 41 -60 107 -82 145 -22 39 -52 93 -67
120 -16 28 -47 84 -71 125 -66 116 -204 361 -285 505 -40 72 -103 184 -140
250 -37 66 -82 147 -100 179 -29 52 -35 57 -45 42 -7 -9 -16 -43 -20 -74 -3
-31 -17 -127 -31 -212 -13 -85 -22 -160 -20 -167 4 -10 44 -13 164 -13 123 0
162 -3 171 -14 17 -21 6 -299 -18 -446 -12 -69 -30 -190 -41 -270 -11 -80 -27
-183 -35 -230 -8 -47 -28 -177 -45 -290 -16 -113 -33 -225 -38 -250 l-8 -45
-1444 0 -1445 0 -3 150 c-2 101 2 183 13 250 8 55 47 307 86 559 80 527 86
557 99 570 13 13 31 14 221 15 131 1 158 4 163 16 3 9 19 109 36 223 17 114
32 214 35 222 4 13 49 310 121 800 13 91 31 205 40 253 8 48 33 208 54 355 43
284 102 678 118 777 7 40 7 64 0 72 -7 9 -59 13 -172 15 l-161 3 -3 140 c-2
103 3 173 17 265 12 69 30 190 41 270 11 80 27 183 35 230 13 80 24 146 60
393 24 157 37 221 49 229 6 4 552 8 1213 8 1018 0 1204 -2 1216 -14 7 -8 44
-70 82 -138 38 -67 132 -235 210 -373 78 -137 188 -333 245 -435 57 -102 138
-246 180 -320 88 -153 95 -165 198 -350 163 -293 254 -450 262 -450 11 0 14
15 55 288 19 129 33 238 29 243 -3 5 -79 9 -168 9 l-164 0 -6 31 c-11 58 -6
255 9 342 8 48 30 191 49 319 55 367 117 770 125 808 l7 35 1304 5 c718 3
1361 6 1430 6 69 1 133 -3 143 -8z m-2869 -1644 c18 -7 23 -98 6 -109 -12 -8
-44 28 -61 68 -10 24 -10 30 2 38 17 10 32 11 53 3z m-1504 -2518 c-15 -15
-43 16 -34 39 7 17 9 16 26 -5 13 -16 16 -26 8 -34z m4770 -725 c23 -6 25 -12
30 -80 3 -40 2 -75 -1 -77 -14 -8 -630 -7 -639 2 -10 10 5 133 18 146 4 4 23
8 42 11 60 7 524 5 550 -2z"/>
<path d="M1193 9528 c-5 -7 -15 -51 -22 -98 -6 -47 -27 -184 -46 -305 -19
-121 -40 -254 -46 -295 -15 -109 -38 -257 -49 -319 -11 -61 -13 -171 -4 -195
5 -13 24 -16 103 -16 115 0 159 -11 193 -47 55 -59 53 -110 -32 -628 -11 -66
-44 -286 -75 -490 -31 -203 -64 -424 -75 -490 -10 -66 -26 -167 -35 -225 -9
-58 -29 -190 -45 -295 -16 -104 -43 -284 -60 -400 -41 -277 -63 -381 -86 -406
-41 -45 -72 -53 -224 -57 -80 -2 -148 -7 -152 -11 -5 -4 -17 -70 -27 -146 -11
-77 -31 -210 -45 -295 -14 -85 -35 -218 -46 -295 -11 -77 -27 -183 -36 -235
-8 -52 -14 -131 -12 -175 l3 -80 1299 -3 c775 -1 1304 2 1309 7 8 8 41 209 96
586 12 83 33 215 47 295 25 153 38 301 29 330 -5 15 -22 18 -119 22 -89 3
-120 8 -147 24 -44 26 -79 79 -79 120 0 56 73 517 91 571 24 74 123 112 196
77 41 -20 64 -51 138 -184 26 -47 64 -114 85 -150 20 -36 71 -126 112 -200 42
-74 104 -184 138 -245 34 -60 115 -204 180 -320 65 -115 141 -250 169 -298 28
-49 51 -90 51 -92 0 -2 22 -42 49 -89 28 -47 68 -118 90 -158 22 -40 68 -122
103 -183 l64 -110 335 -5 c364 -5 362 -5 398 -65 31 -50 33 -87 11 -226 -39
-254 -71 -458 -110 -724 -17 -110 -44 -283 -60 -385 -16 -102 -36 -237 -45
-300 -21 -146 -33 -198 -57 -233 -35 -50 -68 -59 -227 -63 -80 -3 -149 -8
-153 -12 -4 -4 -12 -37 -17 -72 -5 -36 -21 -146 -36 -245 -14 -99 -30 -198
-35 -220 -5 -22 -13 -76 -19 -120 -6 -44 -22 -158 -36 -252 -15 -101 -25 -203
-23 -245 l3 -73 1479 -3 c989 -1 1483 1 1491 8 7 6 15 29 18 53 4 23 20 134
37 247 17 113 44 295 60 405 17 110 37 239 45 288 19 108 20 223 3 234 -7 4
-141 8 -298 8 -311 0 -322 2 -369 61 -36 46 -36 85 0 307 35 218 47 252 96
284 25 17 76 18 852 21 463 1 829 6 834 11 12 12 44 212 182 1131 19 124 41
270 50 325 18 120 19 187 3 203 -9 9 -196 12 -781 12 -555 0 -780 3 -808 12
-46 13 -88 63 -96 114 -3 19 4 99 16 177 48 310 54 326 124 358 39 17 71 19
462 19 261 0 434 -4 457 -11 63 -17 86 -45 106 -129 l18 -75 735 -2 c433 -2
740 1 748 6 14 9 31 108 116 681 14 96 40 258 57 360 19 117 31 225 32 295 l1
110 -1625 5 c-1615 5 -1625 5 -1660 25 -23 14 -41 36 -54 68 -22 52 -26 13 55
547 33 218 36 238 79 505 16 105 41 271 55 370 54 371 66 420 118 457 29 21
47 23 184 28 84 3 157 10 162 15 5 6 19 75 31 155 11 80 29 199 40 265 72 446
101 656 98 725 l-3 75 -1299 3 c-721 1 -1304 -2 -1309 -7 -10 -10 -28 -117
-112 -675 -36 -236 -65 -449 -65 -473 0 -79 6 -83 121 -83 113 0 152 -12 191
-58 40 -48 41 -82 9 -298 -62 -406 -65 -423 -104 -462 -39 -39 -86 -53 -137
-39 -49 12 -85 50 -132 137 -23 41 -58 104 -79 140 -54 95 -291 515 -329 585
-18 33 -54 96 -80 140 -25 44 -82 143 -125 220 -103 185 -330 588 -419 745
l-71 125 -1106 3 c-878 2 -1108 -1 -1116 -10z m2199 -288 c31 -52 69 -119 85
-148 l28 -53 -24 -20 c-37 -30 -57 -24 -88 29 -32 55 -39 61 -64 55 -40 -11
-44 -30 -14 -85 l28 -51 -27 -24 c-35 -30 -44 -29 -64 8 -9 17 -25 41 -34 53
-16 20 -18 20 -45 4 -93 -54 -126 -68 -139 -57 -19 15 -94 148 -94 165 0 14 3
16 120 84 41 24 111 66 155 92 44 27 89 47 100 46 13 -2 39 -35 77 -98z
m-1434 -1 c42 -11 109 -29 147 -41 39 -11 108 -30 155 -43 221 -60 586 -167
594 -175 8 -8 -28 -282 -40 -301 -9 -15 -25 -11 -208 41 -96 28 -184 50 -195
50 -15 0 -22 -9 -27 -36 -3 -19 -3 -39 2 -44 5 -4 94 -31 197 -61 104 -29 195
-58 203 -64 13 -9 12 -28 -9 -158 -13 -81 -27 -150 -30 -153 -3 -4 -23 -2 -44
4 -21 6 -112 31 -203 57 -91 25 -203 57 -250 70 -130 35 -367 103 -442 126
-45 13 -68 25 -68 35 0 33 42 289 48 296 7 7 134 -23 260 -61 41 -12 80 -20
87 -17 16 6 30 65 18 77 -5 5 -74 27 -153 49 -192 53 -190 52 -190 93 0 35 27
230 36 260 7 22 18 21 112 -4z m4667 -39 c59 -13 75 -39 75 -120 0 -77 -9 -91
-66 -110 -57 -19 -208 -9 -242 17 -24 18 -27 27 -30 88 -3 79 11 110 61 124
42 12 152 13 202 1z m319 1 c5 -8 -121 -189 -169 -244 -9 -10 -50 -63 -92
-117 -41 -55 -84 -102 -94 -105 -21 -7 -59 2 -59 13 0 6 97 137 269 363 36 46
70 87 75 91 15 11 64 10 70 -1z m-624 -33 c3 -215 -3 -404 -12 -415 -8 -10
-37 -13 -112 -11 l-101 3 -3 150 c-3 170 -5 175 -78 175 -55 0 -74 8 -74 30 0
25 5 27 90 45 40 8 91 24 114 34 26 13 65 20 109 20 l67 1 0 -32z m752 -198
c53 -25 65 -157 19 -203 -20 -20 -32 -22 -140 -22 -113 0 -121 1 -145 24 -23
22 -26 32 -26 95 0 39 4 77 9 84 24 39 215 53 283 22z m-3471 -86 c24 -41 56
-96 71 -122 15 -26 27 -56 28 -67 0 -13 -43 -63 -116 -135 -119 -119 -182
-190 -167 -190 5 0 65 32 133 71 69 40 148 85 177 101 l52 29 16 -23 c40 -56
115 -195 115 -213 0 -12 -22 -43 -50 -70 -70 -69 -66 -77 24 -53 41 12 81 18
88 15 16 -6 138 -209 138 -229 0 -8 -12 -21 -27 -29 -15 -8 -73 -41 -128 -75
-55 -33 -129 -76 -164 -95 l-63 -34 -23 29 c-12 16 -33 50 -45 77 -28 58 -25
63 64 113 67 38 99 66 75 66 -8 0 -49 -11 -92 -25 -111 -35 -119 -34 -150 24
-15 27 -27 53 -27 57 0 5 34 45 75 88 41 44 73 82 70 84 -5 6 -93 -39 -137
-70 -43 -30 -61 -23 -95 35 -18 28 -37 66 -44 82 -7 17 -20 39 -30 50 -29 35
-89 145 -89 164 0 10 9 26 20 36 43 39 16 77 -50 73 l-42 -3 -48 84 c-27 46
-46 89 -44 95 3 7 33 20 67 30 34 10 123 37 197 61 74 23 144 43 156 44 15 1
31 -17 65 -75z m1767 -36 c7 -7 12 -35 12 -64 0 -54 8 -64 50 -64 14 0 22 11
30 40 11 43 31 51 71 29 16 -8 19 -19 17 -56 -2 -52 19 -76 62 -71 20 2 26 10
31 41 8 48 19 60 52 52 49 -13 51 -24 25 -157 -22 -110 -26 -123 -46 -126 -12
-2 -92 20 -178 48 -86 28 -157 50 -159 48 -1 -2 -5 -24 -8 -50 -8 -60 -8 -61
187 -123 l149 -47 -6 -62 c-7 -71 -15 -96 -31 -96 -6 0 -81 23 -166 50 -85 28
-160 48 -166 46 -10 -4 -27 -68 -39 -148 -11 -72 62 -96 79 -25 8 29 14 37 32
37 46 0 54 -9 54 -65 0 -50 2 -54 31 -64 50 -17 56 -14 69 39 10 42 16 50 35
50 12 0 32 -8 44 -17 l22 -18 -26 -124 c-14 -68 -25 -125 -25 -127 0 -18 -385
101 -426 131 -17 12 -16 20 10 161 39 208 85 436 92 454 4 8 8 35 9 60 3 42
30 189 40 218 6 15 57 16 73 0z m-3398 -479 c119 -27 120 -27 120 -62 0 -59
-33 -262 -45 -275 -9 -10 -28 -9 -99 9 -99 26 -121 21 -121 -27 0 -23 7 -32
35 -46 45 -22 513 -154 607 -171 34 -7 63 11 63 39 0 38 -23 54 -115 84 -52
16 -98 30 -100 30 -3 0 -10 -11 -15 -25 -6 -16 -17 -25 -30 -25 -36 0 -109 22
-121 36 -14 17 33 353 51 364 6 4 111 -22 233 -57 122 -35 238 -68 258 -73 21
-6 39 -16 42 -23 8 -22 -21 -180 -35 -188 -7 -5 -18 -9 -25 -9 -22 0 -23 -18
-1 -66 47 -107 19 -262 -63 -344 -89 -89 -141 -89 -456 0 -328 94 -361 107
-418 164 -39 39 -57 67 -73 116 -45 132 -20 338 55 448 68 99 138 127 253 101z
m4109 -94 c35 -9 130 -28 212 -45 82 -16 154 -32 159 -35 6 -3 10 -15 10 -25
0 -33 -23 -109 -34 -113 -6 -2 -52 3 -103 12 -51 8 -95 12 -99 8 -15 -14 14
-28 100 -48 48 -12 90 -27 93 -35 7 -18 -15 -117 -28 -125 -17 -10 -473 83
-492 101 -11 10 10 115 26 129 9 6 36 5 85 -6 55 -12 76 -13 84 -5 19 19 -2
31 -70 43 -88 16 -96 23 -82 84 6 28 13 56 15 63 6 16 46 15 124 -3z m-2728
-165 c5 0 30 -19 55 -42 53 -49 92 -119 100 -182 6 -40 4 -47 -21 -70 -44 -41
-70 -35 -105 27 -35 61 -37 74 -10 82 29 9 26 45 -3 45 -39 0 -47 -18 -47
-113 0 -94 -7 -116 -49 -154 l-26 -24 35 4 c19 2 88 16 152 31 178 40 168 43
238 -87 36 -67 40 -81 29 -92 -34 -32 -345 -235 -361 -235 -10 0 -25 15 -34
33 -10 17 -27 45 -38 60 l-21 29 33 26 c25 20 31 32 26 46 -6 15 -14 17 -51
12 l-43 -6 -36 56 c-30 46 -35 62 -29 90 4 26 2 34 -8 34 -18 0 -99 86 -121
127 -25 49 -36 111 -24 143 9 28 65 70 92 70 15 0 76 -94 76 -117 0 -8 -13
-20 -30 -26 -21 -8 -30 -18 -30 -34 0 -19 5 -23 29 -23 45 0 54 21 56 126 1
88 3 95 29 123 28 29 88 53 114 45 8 -2 18 -4 23 -4z m853 -257 c25 -43 46
-85 46 -94 0 -13 -88 -79 -105 -79 -3 0 -58 -32 -122 -71 -65 -39 -129 -72
-142 -72 -20 -2 -32 12 -71 78 -26 44 -46 85 -43 91 2 7 41 33 86 59 45 26
114 67 152 90 91 55 127 74 142 75 7 0 33 -35 57 -77z m1801 47 c23 -9 25 -13
19 -47 -12 -69 -26 -88 -61 -85 -37 4 -49 -10 -27 -32 27 -27 55 -18 108 36
77 78 111 98 165 98 57 0 131 -35 149 -70 20 -38 10 -148 -18 -198 -31 -55
-75 -76 -141 -67 -28 4 -53 13 -55 20 -3 7 1 36 9 66 l13 54 53 -3 c50 -4 53
-3 49 20 -2 19 -10 24 -42 26 -36 3 -44 -1 -106 -63 -81 -80 -116 -93 -194
-71 -79 23 -91 42 -91 140 0 71 4 86 27 123 15 23 35 46 45 52 23 13 65 14 98
1z m-743 -15 c25 -9 58 -29 74 -46 28 -29 29 -34 27 -109 l-3 -78 81 -27 82
-28 -7 -59 c-6 -64 -20 -98 -39 -98 -7 0 -102 31 -212 68 -184 61 -200 69
-204 92 -4 29 12 106 40 202 29 98 64 116 161 83z m-918 -272 c25 -43 46 -85
46 -93 -1 -13 -66 -55 -221 -143 -72 -41 -77 -51 -51 -100 27 -51 27 -66 5
-83 -42 -31 -56 -19 -136 118 -77 129 -87 162 -57 180 8 4 87 51 175 103 88
52 168 95 177 95 11 0 34 -28 62 -77z m-2551 -44 c299 -81 603 -171 644 -190
46 -22 87 -68 124 -138 18 -35 23 -65 27 -145 10 -246 -97 -435 -248 -436 -35
0 -186 38 -480 122 -80 22 -190 53 -244 69 -54 15 -103 32 -109 38 -16 16 22
301 40 308 14 6 178 -36 388 -98 193 -56 424 -119 439 -119 8 0 20 9 26 20 24
44 -18 69 -200 118 -526 144 -640 179 -640 199 0 35 33 259 41 282 6 15 15 21
24 17 9 -3 84 -24 168 -47z m4167 -18 c347 -70 350 -71 350 -95 0 -37 -23
-115 -35 -119 -7 -3 -59 5 -116 18 -57 13 -159 33 -227 46 -68 12 -130 28
-139 34 -13 10 -14 19 -4 65 14 64 26 81 55 75 11 -3 64 -13 116 -24z m-700
-86 c107 -36 201 -69 209 -74 16 -11 7 -114 -12 -129 -8 -7 -32 -4 -72 9 -65
20 -105 25 -89 10 5 -5 36 -24 69 -41 87 -47 89 -49 75 -100 l-12 -43 -100 7
c-61 4 -98 3 -94 -2 3 -5 44 -21 91 -36 l85 -27 -1 -42 c-1 -58 -12 -91 -31
-95 -20 -4 -389 117 -409 134 -14 12 -14 22 1 106 l16 93 79 5 c77 5 79 5 55
21 -14 9 -44 26 -67 38 -49 25 -50 30 -27 140 16 77 20 91 32 91 4 0 95 -29
202 -65z m-1498 -2 c25 -31 58 -93 58 -112 0 -12 -29 -36 -86 -71 -47 -29 -83
-54 -80 -57 3 -3 51 7 107 21 90 23 104 25 118 12 23 -21 77 -123 69 -131 -14
-15 -444 -109 -457 -100 -11 6 -105 160 -114 188 -4 11 1 24 16 37 39 34 331
230 343 230 6 0 18 -8 26 -17z m753 -138 c19 -34 35 -68 35 -74 0 -7 -18 -33
-40 -58 -22 -25 -40 -50 -40 -54 0 -12 25 -11 70 2 63 19 82 8 125 -75 22 -41
36 -78 32 -83 -5 -4 -75 -9 -155 -11 -146 -4 -147 -4 -209 -38 -34 -19 -70
-34 -81 -34 -14 0 -33 22 -63 71 -50 83 -49 87 36 139 59 36 80 63 166 210 46
79 59 92 76 78 7 -6 29 -39 48 -73z m1405 35 c41 -10 129 -28 195 -41 156 -28
159 -30 151 -82 -12 -71 -26 -83 -101 -89 -114 -10 -107 -25 25 -56 31 -8 35
-12 33 -41 -3 -65 -11 -81 -44 -81 -16 0 -116 18 -222 40 -106 22 -204 43
-219 46 -29 6 -31 10 -28 58 4 64 11 70 99 86 45 9 83 20 84 25 1 6 -24 15
-55 21 -31 6 -64 14 -73 17 -20 8 -20 75 0 104 17 25 23 25 155 -7z m-1872
-388 c62 -105 62 -102 -23 -158 -27 -18 -88 -60 -135 -93 -47 -33 -102 -70
-123 -81 -36 -20 -40 -20 -56 -6 -10 9 -28 39 -42 67 l-23 51 29 24 c25 20 28
27 19 41 -9 14 -22 17 -55 15 -44 -3 -44 -3 -76 52 -34 55 -40 80 -24 90 5 3
42 13 83 21 40 8 127 28 193 44 173 43 169 44 233 -67z m1847 14 c226 -45 280
-58 293 -70 11 -10 11 -22 1 -62 -18 -76 -24 -79 -109 -60 -40 10 -93 19 -117
21 -40 4 -43 3 -29 -11 12 -11 14 -26 10 -54 -6 -38 -6 -39 32 -50 22 -6 63
-15 93 -20 30 -5 59 -14 64 -19 11 -11 -7 -119 -21 -133 -10 -10 -478 84 -493
99 -6 6 -1 50 17 129 14 65 30 143 35 173 5 29 14 63 20 73 12 23 3 23 204
-16z m-740 -57 c110 -36 136 -48 166 -80 58 -59 62 -144 13 -256 -22 -51 -61
-83 -99 -83 -37 0 -267 83 -295 106 -78 66 -58 279 32 334 18 11 38 20 43 20
6 0 69 -19 140 -41z m-1668 -144 c30 -20 60 -68 74 -119 14 -52 -9 -113 -53
-143 -58 -39 -64 -38 -92 6 -35 55 -33 75 9 101 38 23 44 37 20 46 -14 6 -90
-31 -135 -66 -20 -16 -22 -20 -7 -20 18 0 87 -97 87 -123 0 -7 -33 -32 -72
-54 -40 -22 -92 -51 -116 -64 l-43 -24 -19 25 c-11 14 -20 35 -20 47 0 12 -9
27 -21 33 -30 17 -59 70 -59 110 0 74 40 108 267 226 94 49 128 53 180 19z
m-1707 -59 c175 -43 392 -106 472 -137 91 -36 134 -73 172 -151 86 -176 31
-465 -105 -555 -39 -26 -50 -28 -128 -27 -85 1 -182 25 -544 135 -188 57 -275
205 -249 424 19 164 75 268 165 311 65 30 98 30 217 0z m2379 10 c60 -31 121
-124 136 -208 5 -27 2 -45 -11 -67 -20 -34 -74 -67 -96 -58 -18 6 -81 124 -74
136 3 5 19 14 36 21 31 13 40 37 16 46 -12 5 -119 -36 -243 -91 -35 -15 -44
-42 -18 -51 22 -9 73 15 80 37 7 22 41 43 59 36 8 -3 32 -38 55 -78 34 -59 40
-75 29 -85 -15 -14 -185 -84 -205 -84 -15 0 -53 57 -53 81 0 8 -14 28 -31 45
-63 60 -86 143 -55 202 12 23 40 38 143 80 135 54 184 62 232 38z m-514 -220
c22 -38 26 -76 6 -76 -10 0 -84 -71 -79 -76 3 -2 24 3 48 11 71 25 93 20 118
-24 12 -21 22 -45 22 -52 0 -7 9 -22 20 -34 23 -24 70 -111 70 -128 0 -7 -28
-34 -62 -61 -34 -27 -57 -51 -52 -53 6 -2 41 8 78 22 81 30 84 29 131 -60 l30
-57 -27 -21 c-49 -37 -412 -235 -423 -231 -16 7 -45 59 -45 82 0 15 23 34 88
72 93 55 83 59 -41 13 l-78 -28 -20 24 c-10 13 -19 29 -19 37 0 7 32 39 72 70
39 32 66 60 60 62 -7 2 -42 -12 -77 -32 -36 -20 -72 -36 -80 -36 -17 0 -55 56
-55 81 0 10 43 40 113 79 265 148 299 170 264 170 -20 0 -248 -47 -272 -56
-10 -4 -49 -25 -84 -46 -36 -21 -71 -38 -78 -38 -17 0 -58 83 -51 102 3 7 18
20 34 28 78 40 138 88 239 189 60 61 113 111 117 111 4 0 19 -20 33 -44z
m1386 23 c20 -10 21 -17 16 -68 -4 -32 -9 -66 -13 -75 -7 -18 -15 -18 -96 0
-21 5 -29 2 -34 -11 -10 -26 12 -39 148 -86 95 -32 131 -40 139 -32 19 19 2
42 -47 63 -40 17 -45 23 -40 43 3 12 9 41 12 64 8 51 23 66 59 57 71 -18 123
-113 111 -204 -16 -118 -65 -190 -129 -190 -50 0 -269 78 -300 108 -70 66 -59
242 19 320 33 33 38 34 84 29 27 -3 59 -11 71 -18z m-600 -221 c72 -124 72
-125 46 -143 -36 -25 -63 -19 -86 20 -20 34 -41 42 -75 29 -18 -7 -22 -49 -6
-59 16 -10 12 -52 -6 -59 -36 -14 -64 -6 -79 23 -21 41 -29 44 -70 27 -41 -17
-42 -23 -15 -76 11 -22 20 -42 20 -45 0 -9 -70 -36 -79 -30 -8 4 -62 92 -110
178 -11 21 -21 44 -21 51 0 13 127 74 226 110 21 8 64 26 94 40 92 43 99 40
161 -66z m4695 -263 c66 -19 93 -49 100 -111 8 -66 -4 -76 -92 -72 -60 3 -69
6 -72 23 -9 59 -13 66 -35 63 -16 -2 -23 -11 -25 -31 -5 -38 18 -70 65 -92 21
-10 63 -35 95 -56 48 -33 59 -46 73 -90 19 -56 16 -123 -6 -173 -31 -68 -197
-99 -297 -56 -64 28 -94 67 -100 131 -7 69 5 79 93 79 82 0 85 -3 85 -76 0
-40 2 -44 24 -44 30 0 41 27 31 76 -4 26 -15 39 -43 54 -167 92 -192 121 -192
226 0 63 3 76 25 102 48 57 168 78 271 47z m470 -13 c44 -23 52 -34 64 -97 13
-64 1 -75 -79 -75 -75 0 -87 7 -93 55 -2 22 -8 30 -23 30 -15 0 -21 -8 -23
-33 -4 -43 16 -65 90 -103 121 -61 153 -111 146 -229 -6 -111 -50 -144 -193
-145 -149 0 -210 45 -210 158 l0 62 80 0 80 0 3 -35 c5 -68 11 -82 35 -78 51
7 42 93 -14 127 -14 9 -51 31 -82 49 -67 40 -93 70 -108 124 -19 73 4 150 56
184 61 40 200 43 271 6z m-1689 -14 c66 -44 73 -69 73 -282 0 -166 -2 -191
-20 -225 -53 -105 -275 -121 -358 -26 -39 44 -44 79 -40 292 3 196 8 208 89
251 38 20 55 23 130 20 73 -3 92 -7 126 -30z m453 9 c60 -32 82 -65 91 -139
13 -106 11 -108 -86 -108 -95 0 -95 0 -95 90 0 65 -18 93 -45 70 -13 -11 -15
-43 -13 -209 l3 -196 25 0 c24 0 25 4 28 60 2 32 8 65 14 72 15 18 152 18 167
-1 16 -19 3 -123 -20 -161 -39 -66 -152 -98 -262 -75 -77 16 -120 56 -136 128
-14 65 -15 324 -1 371 22 79 96 120 211 121 60 0 85 -5 119 -23z m424 17 c12
-5 16 -20 16 -60 0 -59 -2 -60 -80 -66 -33 -3 -35 -5 -38 -41 -4 -51 11 -67
63 -67 45 0 55 -10 55 -55 0 -43 -10 -54 -58 -61 -53 -8 -62 -16 -62 -61 0
-54 8 -63 57 -63 67 0 83 -13 83 -64 0 -25 -6 -48 -14 -55 -9 -8 -60 -11 -157
-9 l-144 3 -8 279 c-6 191 -5 287 2 303 10 22 15 23 140 23 71 0 136 -3 145
-6z m-3077 -26 c7 -5 14 -5 18 2 3 6 44 10 96 10 l89 0 0 -92 c0 -100 7 -122
36 -116 17 3 19 15 22 104 l3 101 37 7 c59 9 107 7 125 -6 16 -12 17 -39 15
-303 l-3 -290 -85 0 -85 0 -3 112 c-2 83 -6 114 -17 123 -12 10 -18 10 -30 0
-12 -10 -15 -34 -14 -109 0 -53 1 -104 0 -114 -1 -16 -10 -17 -88 -15 l-88 3
-6 255 c-3 140 -7 257 -8 260 -1 3 -6 -4 -10 -15 -6 -15 -20 -21 -57 -25 l-49
-5 -5 -235 -5 -235 -86 -3 -86 -3 -6 62 c-3 33 -6 138 -7 232 0 95 -4 175 -8
179 -4 4 -25 8 -47 10 l-40 3 -3 57 -3 58 178 2 c181 3 199 2 220 -14z m781
13 c9 -5 12 -25 10 -62 l-3 -54 -47 -3 c-58 -4 -71 -18 -60 -68 7 -38 9 -39
52 -42 51 -4 60 -13 60 -62 0 -49 -9 -58 -60 -62 -38 -3 -45 -7 -50 -28 -3
-14 -3 -41 0 -60 5 -35 6 -35 65 -40 l60 -5 0 -55 0 -55 -155 0 -155 0 0 295
0 295 105 6 c58 3 119 6 135 7 17 1 36 -2 43 -7z m926 -2 c21 -6 49 -21 62
-34 52 -52 56 -174 7 -222 l-24 -25 28 -30 c27 -28 28 -34 31 -145 2 -63 0
-119 -5 -124 -13 -13 -81 -21 -123 -14 l-38 6 -4 119 c-3 121 -12 148 -42 137
-13 -5 -16 -27 -16 -131 0 -142 3 -137 -91 -135 -98 3 -89 -28 -89 303 0 161
3 296 7 299 11 11 255 8 297 -4z m-5944 -24 c94 -24 95 -27 79 -124 -8 -50 -9
-85 -3 -91 8 -8 243 -77 394 -115 98 -25 391 -113 398 -119 5 -5 -19 -191 -35
-279 -9 -44 -12 -43 -448 83 -272 79 -359 100 -366 89 -3 -6 -12 -45 -19 -85
-6 -41 -15 -76 -20 -79 -8 -5 -66 8 -157 37 -30 9 -33 13 -33 47 0 21 4 61 10
89 5 28 25 158 45 289 19 131 38 249 41 262 5 26 2 26 114 -4z m5538 5 c55
-25 72 -64 72 -163 0 -132 -25 -164 -139 -175 l-66 -7 -5 -115 -5 -115 -86 -3
c-81 -3 -87 -1 -92 19 -8 30 -9 523 -1 554 l6 25 137 0 c113 0 143 -4 179 -20z
m-2966 -213 c44 -74 68 -129 68 -156 0 -25 -53 -87 -91 -107 -15 -7 -48 -14
-74 -14 -31 0 -45 -4 -45 -14 0 -27 -39 -62 -117 -103 -44 -24 -83 -43 -86
-43 -12 0 -59 90 -54 103 2 7 37 30 77 52 76 41 100 60 100 76 0 18 -29 8
-110 -37 -63 -36 -87 -45 -99 -37 -22 14 -64 90 -56 103 4 6 32 24 63 40 65
34 115 62 187 104 96 57 170 95 185 95 8 1 32 -27 52 -62z m2223 -547 c21 -5
46 -19 56 -31 l16 -22 31 23 c38 28 98 34 242 23 l105 -8 -2 -46 c-2 -26 -7
-58 -12 -72 l-10 -26 -156 6 c-151 6 -155 6 -155 -14 0 -20 8 -21 143 -28 78
-4 147 -11 153 -16 10 -8 -2 -97 -18 -139 -4 -8 -9 -44 -13 -80 -9 -91 -16
-100 -75 -100 -90 0 -105 -53 -19 -65 28 -4 53 -13 55 -20 3 -7 -6 -73 -20
-146 -13 -74 -28 -153 -31 -176 -12 -77 12 -74 -375 -56 -190 8 -349 19 -354
23 -11 11 2 113 17 134 11 14 39 14 290 4 152 -6 280 -9 283 -5 11 10 23 82
15 90 -4 4 -124 25 -267 47 -142 22 -265 42 -271 45 -7 2 -13 18 -13 34 0 38
28 173 39 184 4 4 93 14 197 22 603 46 612 53 94 75 -135 6 -251 13 -257 15
-18 6 -16 35 11 153 33 148 68 179 206 181 30 0 73 -4 95 -9z m-1610 -165 l0
-80 -65 -5 -65 -5 0 -70 c0 -54 3 -70 15 -72 8 -1 37 -5 63 -8 l48 -6 -3 -72
-3 -72 -63 -9 -63 -9 3 -81 3 -81 68 -6 c43 -4 72 -11 78 -20 11 -17 12 -120
1 -137 -7 -9 -51 -12 -188 -10 l-179 3 -3 404 c-2 317 1 406 10 413 7 4 87 7
178 5 l165 -2 0 -80z m410 0 l0 -80 -65 -5 -65 -5 -3 -64 c-2 -36 2 -69 8 -75
5 -5 26 -9 46 -8 68 5 74 -1 74 -79 0 -65 -2 -70 -26 -79 -14 -6 -43 -10 -65
-10 l-40 0 3 -82 3 -83 65 -5 c36 -3 71 -9 78 -13 13 -9 17 -112 6 -141 -5
-14 -31 -16 -184 -16 -153 0 -179 2 -184 16 -8 22 -8 799 1 808 4 3 84 5 177
4 l171 -3 0 -80z m410 0 l0 -80 -65 -5 -65 -5 -3 -64 c-2 -35 1 -68 7 -74 5
-5 33 -11 61 -12 28 -1 53 -5 56 -8 7 -7 12 -107 6 -129 -3 -13 -14 -18 -37
-18 -18 0 -47 -3 -64 -6 l-32 -7 3 -81 3 -81 65 -5 c36 -3 71 -9 78 -13 14 -9
17 -124 4 -145 -7 -9 -51 -12 -188 -10 l-179 3 -3 399 c-2 290 1 402 9 413 9
11 46 13 178 11 l166 -3 0 -80z m-4019 -190 c58 -24 83 -72 96 -176 12 -108 5
-330 -12 -374 -28 -73 -87 -108 -185 -109 -84 0 -133 15 -168 52 -43 45 -47
71 -47 288 0 221 5 248 53 293 53 48 180 61 263 26z m465 -6 c21 -10 48 -35
60 -56 23 -37 24 -44 24 -259 l0 -220 -28 -43 c-37 -55 -81 -74 -177 -74 -81
-1 -107 9 -157 56 -47 44 -55 98 -51 317 3 174 4 187 26 223 39 62 113 90 212
80 30 -3 71 -13 91 -24z m863 20 c54 -15 93 -59 101 -113 4 -24 4 -54 0 -65
-6 -20 -12 -22 -83 -19 l-77 3 -6 38 c-8 49 -23 65 -44 47 -8 -7 -15 -22 -15
-34 0 -49 13 -66 74 -100 89 -50 144 -100 156 -144 5 -20 10 -68 10 -107 0
-114 -44 -162 -159 -172 -88 -8 -161 11 -202 53 -33 34 -34 38 -34 112 l0 77
68 3 c80 3 99 -7 96 -52 -3 -54 1 -74 16 -80 23 -8 45 22 45 64 0 33 -6 43
-47 77 -27 22 -72 54 -102 73 -67 42 -90 88 -91 180 0 81 23 123 83 150 48 22
149 26 211 9z m-1788 -22 c65 -34 94 -87 94 -172 0 -61 -5 -65 -86 -65 -78 0
-94 11 -94 65 0 24 -3 50 -6 59 -9 24 -41 19 -48 -6 -10 -38 -7 -375 4 -402
18 -49 49 -26 57 43 5 45 3 55 -16 75 -17 18 -22 33 -19 62 l3 39 103 3 102 3
-2 -173 -3 -173 -39 -3 c-21 -2 -51 2 -66 8 -23 9 -34 8 -58 -4 -73 -38 -181
-8 -223 61 -23 36 -24 48 -27 239 -2 122 0 216 7 240 13 48 54 90 107 110 48
18 169 12 210 -9z m1211 1 c6 -7 25 -57 42 -110 46 -138 58 -137 52 4 -2 31 0
70 4 87 7 31 7 31 76 31 63 0 69 -2 74 -22 3 -13 4 -158 3 -323 l-3 -300 -80
0 -79 0 -31 95 c-48 149 -49 149 -55 20 l-5 -115 -71 -3 -72 -3 -5 48 c-7 76
-8 568 -1 586 5 14 20 17 74 17 42 0 71 -5 77 -12z m4320 -684 c7 -18 -34
-215 -47 -228 -8 -8 -612 10 -659 19 -9 2 -25 4 -35 4 -17 1 -18 7 -13 59 10
93 9 92 92 92 40 0 165 -5 279 -11 226 -12 236 -10 236 41 0 14 3 30 7 33 3 4
35 7 70 7 48 0 65 -4 70 -16z m-361 -274 c213 -13 250 -25 283 -94 18 -36 20
-50 12 -93 -15 -75 -44 -118 -104 -147 -46 -24 -62 -26 -171 -26 -193 1 -366
16 -406 35 -76 36 -100 121 -60 213 35 80 105 121 211 122 31 0 137 -5 235
-10z m784 -282 c24 -10 52 -26 62 -35 23 -20 41 -88 34 -119 -6 -23 -10 -24
-100 -24 -101 0 -106 2 -106 58 0 36 -14 55 -36 50 -18 -3 -19 -15 -19 -173
l0 -170 24 -3 c47 -7 58 67 16 112 -29 31 -30 36 -12 59 11 15 27 17 122 15
l110 -3 3 -124 c2 -82 -1 -128 -9 -137 -14 -17 -92 -19 -121 -3 -16 9 -31 8
-62 -2 -98 -33 -226 -2 -266 63 -18 29 -20 50 -20 191 0 116 4 165 14 185 42
81 242 114 366 60z m865 -238 l0 -255 -89 -3 c-49 -2 -93 1 -97 5 -5 5 -12
115 -15 245 -6 189 -4 240 6 253 10 13 31 15 104 13 l91 -3 0 -255z m473 208
c3 -52 0 -54 -78 -60 l-35 -3 -1 -186 c0 -102 -3 -193 -7 -202 -5 -14 -21 -17
-97 -17 -64 0 -92 4 -95 13 -2 6 -6 98 -9 202 -3 105 -5 191 -5 193 -1 1 -23
2 -49 2 -56 0 -72 12 -72 55 0 54 5 56 235 53 l210 -3 3 -47z m-804 28 c54
-22 76 -60 76 -127 0 -51 -4 -62 -27 -84 l-28 -25 22 -15 c12 -9 27 -32 33
-53 13 -47 13 -143 0 -176 -9 -25 -13 -26 -89 -26 -98 0 -101 4 -101 122 0 91
-8 112 -36 106 -17 -3 -19 -15 -22 -108 -2 -68 -7 -107 -15 -112 -21 -13 -177
-10 -182 5 -6 17 -12 456 -7 484 4 23 5 23 173 23 122 0 179 -4 203 -14z
m-1502 -165 c-5 -87 -9 -91 -110 -91 -92 0 -119 -8 -109 -33 7 -18 59 -24 300
-33 126 -5 171 -3 182 6 28 23 -2 40 -69 40 -83 0 -90 7 -81 65 13 88 18 95
74 95 28 0 73 -5 100 -11 119 -25 159 -165 78 -272 -59 -77 -68 -79 -347 -74
-270 5 -295 10 -343 66 -49 58 -34 181 30 245 46 47 77 56 193 53 l105 -2 -3
-54z m-274 -470 c10 -6 11 -19 6 -46 -8 -46 3 -55 71 -55 51 0 51 0 65 43 l15
42 60 0 60 0 3 -40 c2 -22 7 -43 11 -47 4 -4 35 -8 70 -9 69 -2 81 6 81 52 0
39 21 50 87 47 l58 -3 -2 -53 c-3 -64 -28 -191 -41 -204 -11 -11 -685 17 -706
29 -14 9 16 216 36 241 12 14 106 16 126 3z m135 -316 c306 -16 325 -19 366
-71 46 -58 17 -196 -53 -248 -57 -44 -89 -46 -393 -34 -155 6 -288 15 -294 18
-7 5 -8 26 -4 63 12 97 -10 92 324 77 285 -12 332 -9 299 17 -7 6 -133 16
-293 22 -188 8 -284 16 -292 24 -10 10 -10 24 1 68 14 63 22 79 39 79 7 0 142
-7 300 -15z m324 -410 c5 -15 -5 -85 -29 -189 l-11 -49 -126 7 c-69 3 -227 11
-351 17 -124 6 -229 14 -234 19 -11 11 2 113 17 134 11 15 33 15 287 2 284
-16 300 -14 300 24 0 44 10 50 76 50 49 0 66 -4 71 -15z m-502 -279 c19 -8 35
-20 35 -25 0 -17 30 -13 56 8 33 26 102 33 207 23 105 -11 137 -33 137 -91 0
-42 -36 -247 -46 -263 -5 -8 -56 -9 -168 -4 -365 15 -540 26 -548 34 -11 11
26 194 50 241 20 41 57 70 103 81 56 13 137 11 174 -4z m-414 -632 l26 -5 9
-187 c9 -177 10 -187 29 -187 19 0 20 8 23 179 1 112 7 185 13 193 13 15 175
18 198 4 19 -12 21 -355 2 -389 -7 -13 -34 -34 -59 -45 -41 -19 -65 -22 -177
-22 -116 0 -135 2 -178 23 -26 13 -53 34 -60 45 -8 15 -12 78 -12 202 l0 180
30 6 c40 7 124 9 156 3z m1057 -15 c73 -25 92 -51 92 -127 0 -60 -4 -62 -105
-62 -95 0 -105 4 -105 45 0 54 -16 85 -44 85 -13 0 -27 -7 -30 -16 -3 -9 -6
-71 -6 -139 0 -68 3 -130 6 -139 7 -19 50 -21 61 -3 4 6 10 30 13 52 l5 40
101 3 c115 3 119 0 108 -69 -14 -88 -101 -124 -283 -117 -136 5 -185 23 -214
79 -15 29 -17 55 -15 171 3 125 5 139 24 159 60 60 269 80 392 38z m504 3 c5
-5 8 -25 6 -43 l-3 -34 -65 -5 -65 -5 0 -35 0 -35 60 -5 60 -5 3 -42 3 -43
-53 0 c-70 0 -80 -8 -76 -56 l3 -39 55 -3 c95 -4 102 -7 98 -50 l-3 -37 -185
0 -185 0 0 220 0 220 100 5 c135 7 235 4 247 -8z m-1814 -4 c8 -8 12 -68 12
-203 l0 -192 -26 -24 c-24 -22 -32 -24 -147 -24 l-122 0 -3 33 c-3 29 0 33 27
38 17 4 35 12 41 18 5 7 11 88 12 181 l3 169 25 7 c43 12 165 10 178 -3z m837
-40 c3 -29 5 -129 3 -223 l-3 -170 -105 0 -105 0 -3 210 c-1 115 0 215 2 222
4 9 33 13 105 13 l100 0 6 -52z"/>
<path d="M6522 9161 c-14 -8 -20 -130 -8 -149 4 -6 13 -9 21 -5 11 4 15 23 15
78 0 75 -6 90 -28 76z"/>
<path d="M6930 8866 c0 -44 5 -78 11 -82 20 -12 29 19 27 86 -3 53 -6 65 -20
68 -16 3 -18 -6 -18 -72z"/>
<path d="M3420 8727 c-27 -9 -35 -17 -35 -37 0 -36 27 -36 69 0 56 49 43 63
-34 37z"/>
<path d="M3430 7568 c-44 -12 -58 -24 -43 -39 15 -15 63 3 89 32 20 22 11 23
-46 7z"/>
<path d="M5177 7743 c-13 -12 -7 -23 23 -38 37 -19 70 -19 70 -1 0 30 -73 60
-93 39z"/>
<path d="M3800 6891 c-23 -6 -26 -12 -21 -41 2 -18 26 -10 61 20 34 28 34 29
10 29 -14 -1 -36 -4 -50 -8z"/>
<path d="M5755 6816 c-12 -59 -5 -71 40 -71 36 0 40 3 43 27 2 15 13 34 24 42
19 14 19 15 -18 25 -68 19 -82 15 -89 -23z"/>
<path d="M4980 6786 c0 -7 6 -18 13 -23 9 -8 153 -57 253 -88 6 -2 17 1 25 6
26 16 -14 40 -137 80 -129 42 -154 46 -154 25z"/>
<path d="M3188 6544 c-40 -26 -47 -41 -24 -50 15 -6 76 22 88 40 27 40 -10 46
-64 10z"/>
<path d="M1587 6423 c-13 -12 -7 -60 8 -73 16 -13 91 -36 330 -101 83 -22 187
-51 233 -65 62 -18 89 -21 103 -14 26 15 24 56 -3 74 -25 16 -151 57 -313 101
-316 87 -343 93 -358 78z"/>
<path d="M7746 5934 c-3 -9 -6 -93 -6 -188 0 -138 3 -176 15 -192 15 -19 15
-19 30 0 12 16 15 54 15 192 0 95 -3 179 -6 188 -3 9 -14 16 -24 16 -10 0 -21
-7 -24 -16z"/>
<path d="M7297 5933 c-4 -3 -7 -28 -7 -55 0 -35 4 -50 16 -55 24 -9 38 13 37
59 -2 45 -26 72 -46 51z"/>
<path d="M6870 5866 c0 -36 5 -68 10 -71 21 -13 40 17 40 60 0 56 -8 75 -31
75 -17 0 -19 -8 -19 -64z"/>
<path d="M3935 5690 c-30 -20 -39 -40 -20 -47 16 -5 75 35 75 52 0 20 -19 19
-55 -5z"/>
<path d="M6122 5119 c-43 -16 -19 -34 51 -37 56 -2 67 0 67 13 0 9 -6 17 -12
19 -34 11 -85 13 -106 5z"/>
<path d="M6161 4710 c23 -14 158 -32 181 -24 11 3 17 11 15 17 -2 8 -39 13
-108 14 -71 2 -99 0 -88 -7z"/>
<path d="M1325 4788 c-3 -13 -4 -113 -3 -223 3 -192 4 -200 23 -200 19 0 20 8
23 200 3 214 0 245 -23 245 -8 0 -17 -10 -20 -22z"/>
<path d="M1780 4791 c-11 -21 -12 -345 -1 -396 8 -37 36 -45 45 -13 8 30 8
356 0 397 -7 35 -28 41 -44 12z"/>
<path d="M5840 3776 c0 -9 6 -18 13 -21 6 -2 111 -9 231 -15 191 -9 222 -8
235 4 13 13 12 16 -10 25 -14 5 -125 12 -247 16 -204 7 -222 6 -222 -9z"/>
<path d="M7317 3573 c-14 -13 -7 -93 8 -99 23 -9 45 15 45 50 0 43 -31 72 -53
49z"/>
<path d="M5503 1873 c-7 -2 -13 -11 -13 -19 0 -11 17 -14 75 -14 57 0 75 3 75
14 0 8 -7 17 -16 20 -18 7 -103 7 -121 -1z"/>
<path d="M5774 1856 c-4 -9 -5 -19 -2 -21 9 -10 175 -17 181 -8 15 25 -14 38
-92 41 -68 4 -82 1 -87 -12z"/>
</g>
</svg>
